<svg width="24" height="24" viewBox="0 0 24 24" fill="none" xmlns="http://www.w3.org/2000/svg">
<g id="24px/Add">
<g id="Close Square">
<path id="Close Square_2" fill-rule="evenodd" clip-rule="evenodd" d="M7.67 1.99927H16.34C19.73 1.99927 22 4.37927 22 7.91927V16.0903C22 19.6203 19.73 21.9993 16.34 21.9993H7.67C4.28 21.9993 2 19.6203 2 16.0903V7.91927C2 4.37927 4.28 1.99927 7.67 1.99927ZM16.2567 11.9852C16.2574 11.5051 15.8685 11.1161 15.3877 11.1161H12.8704L12.8696 8.59813C12.8704 8.11801 12.4744 7.72203 11.9935 7.72203C11.512 7.72132 11.1231 8.11023 11.1167 8.59884L11.1231 11.1084L8.6065 11.1091C8.11789 11.1154 7.72898 11.5043 7.72969 11.9859C7.72969 12.4667 8.12567 12.8627 8.60579 12.862L11.1238 12.8627L11.1167 15.3729C11.1238 15.8608 11.5127 16.2497 11.9928 16.249C12.2332 16.249 12.4602 16.1507 12.6158 15.9952C12.7784 15.8325 12.8696 15.6126 12.8696 15.3722L12.8774 12.8627L15.3869 12.8549C15.6351 12.8627 15.8473 12.7637 16.0028 12.6081C16.1655 12.4455 16.2567 12.2256 16.2567 11.9852Z" fill="white"/>
</g>
</g>
</svg>
