<svg width="18" height="18" viewBox="0 0 18 18" fill="none" xmlns="http://www.w3.org/2000/svg">
<path fill-rule="evenodd" clip-rule="evenodd" d="M5.103 0H12.906C15.957 0 18 2.142 18 5.328V12.6819C18 15.858 15.957 18 12.906 18H5.103C2.052 18 0 15.858 0 12.6819V5.328C0 2.142 2.052 0 5.103 0ZM8.48695 11.6909L12.7619 7.41587C13.0679 7.10987 13.0679 6.61487 12.7619 6.29987C12.4559 5.99387 11.9519 5.99387 11.6459 6.29987L7.92895 10.0169L6.35395 8.44187C6.04795 8.13587 5.54395 8.13587 5.23795 8.44187C4.93195 8.74787 4.93195 9.24287 5.23795 9.55787L7.37995 11.6909C7.53295 11.8439 7.73095 11.9159 7.92895 11.9159C8.13595 11.9159 8.33395 11.8439 8.48695 11.6909Z" fill="#08A534"/>
</svg>
