<svg width="24" height="24" viewBox="0 0 24 24" fill="none" xmlns="http://www.w3.org/2000/svg">
<path opacity="0.05" d="M12 0C5.376 0 0 5.3772 0 12C0 18.6252 5.376 24 12 24C18.636 24 24 18.6252 24 12C24 5.3772 18.636 0 12 0Z" fill="white"/>
<path d="M12.0099 16.6803C11.5199 16.6803 11.1299 16.2803 11.1299 15.8003C11.1299 15.3203 11.5199 14.9303 11.9999 14.9303C12.4899 14.9303 12.8799 15.3203 12.8799 15.8003C12.8799 16.2803 12.4899 16.6803 12.0099 16.6803Z" fill="#EA4882"/>
<path d="M11.1201 8.20922C11.1201 7.73022 11.5201 7.32922 12.0001 7.32922C12.4801 7.32922 12.8701 7.73022 12.8701 8.20922V12.6292C12.8701 13.1102 12.4801 13.4992 12.0001 13.4992C11.5201 13.4992 11.1201 13.1102 11.1201 12.6292V8.20922Z" fill="#EA4882"/>
</svg>
