<svg width="24" height="24" viewBox="0 0 24 24" fill="none" xmlns="http://www.w3.org/2000/svg">
<path d="M7.21875 12C7.21875 11.1082 7.46446 10.2728 7.89132 9.55746V6.52319H4.85706C3.65278 8.08722 3 9.99336 3 12C3 14.0067 3.65278 15.9128 4.85706 17.4768H7.89132V14.4426C7.46446 13.7272 7.21875 12.8918 7.21875 12Z" fill="#FBBD00"/>
<path d="M12 16.7812L9.89062 18.8905L12 20.9999C14.0067 20.9999 15.9128 20.3471 17.4768 19.1428V16.1118H14.4458C13.7242 16.5402 12.8853 16.7812 12 16.7812Z" fill="#0F9D58"/>
<path d="M7.89132 14.4426L4.85706 17.4769C5.09549 17.7865 5.35511 18.0831 5.63605 18.3641C7.33592 20.0639 9.59601 21.0001 12 21.0001V16.7813C10.2554 16.7813 8.72635 15.842 7.89132 14.4426Z" fill="#31AA52"/>
<path d="M21 12.0001C21 11.4525 20.9504 10.9039 20.8526 10.3696L20.7735 9.93726H12V14.156H16.2698C15.8552 14.9808 15.2176 15.6537 14.4457 16.112L17.4768 19.1431C17.7864 18.9046 18.083 18.645 18.3639 18.3641C20.0638 16.6642 21 14.4041 21 12.0001Z" fill="#3C79E6"/>
<path d="M15.3809 8.61913L15.7537 8.992L18.7369 6.00892L18.364 5.63605C16.6641 3.93618 14.404 3 12 3L9.89062 5.10938L12 7.21875C13.2771 7.21875 14.4778 7.71607 15.3809 8.61913Z" fill="#CF2D48"/>
<path d="M12 7.21875V3C9.59602 3 7.33593 3.93618 5.63602 5.63602C5.35508 5.91695 5.09545 6.21349 4.85703 6.52318L7.89129 9.55745C8.72636 8.15812 10.2554 7.21875 12 7.21875Z" fill="#EB4132"/>
</svg>
