<svg width="24" height="24" viewBox="0 0 24 24" fill="none" xmlns="http://www.w3.org/2000/svg">
<path d="M7.10417 9.06259L3.10409 11.8358C3.03466 11.8879 3 11.9504 3 12.0234C3 12.0912 3.03466 12.151 3.10409 12.203L7.10421 14.9371C7.21545 15.0048 7.33687 15.0179 7.46884 14.9762C7.60077 14.9345 7.66674 14.8591 7.66674 14.7497L7.66674 12.9999L20.667 12.9999C20.7642 12.9999 20.8441 12.9765 20.9065 12.9296C20.9688 12.8827 21 12.8229 21 12.7499L21 11.2501C21 11.1771 20.9688 11.1172 20.9065 11.0705C20.8441 11.0237 20.7642 11.0001 20.667 11.0001L7.66674 11.0001L7.66674 9.25034C7.66674 9.1462 7.60074 9.07077 7.46884 9.02396C7.33673 8.98209 7.2153 8.99517 7.10417 9.06259Z" fill="#373C48"/>
</svg>
