<svg width="24" height="24" viewBox="0 0 24 24" fill="none" xmlns="http://www.w3.org/2000/svg">
<g id="24px/Logout">
<path id="Logout" fill-rule="evenodd" clip-rule="evenodd" d="M9.59892 10.7685C9.17784 10.7685 8.8449 11.0915 8.8449 11.5C8.8449 11.899 9.17784 12.2315 9.59892 12.2315H15.4744V16.7725C15.4744 19.1 13.5257 21 11.1167 21H6.34783C3.94869 21 2 19.1095 2 16.782V6.2275C2 3.8905 3.95848 2 6.35763 2H11.1363C13.5257 2 15.4744 3.8905 15.4744 6.218V10.7685H9.59892ZM18.9683 8.21319L21.7787 10.9777C21.9231 11.1202 22.0001 11.3007 22.0001 11.5002C22.0001 11.6902 21.9231 11.8802 21.7787 12.0132L18.9683 14.7777C18.824 14.9202 18.6315 14.9962 18.4486 14.9962C18.2561 14.9962 18.0636 14.9202 17.9192 14.7777C17.6305 14.4927 17.6305 14.0272 17.9192 13.7422L19.4592 12.2317H15.4746V10.7687H19.4592L17.9192 9.25819C17.6305 8.97319 17.6305 8.50769 17.9192 8.22269C18.208 7.92819 18.6796 7.92819 18.9683 8.21319Z" fill="#fff"/>
</g>
</svg>
