<svg width="24" height="24" viewBox="0 0 24 24" fill="none" xmlns="http://www.w3.org/2000/svg">
<g id="24px/Refferal">
<path id="3 Friends" fill-rule="evenodd" clip-rule="evenodd" d="M15.7803 8.70375C15.7803 10.7597 14.0774 12.4083 11.9537 12.4083C9.82994 12.4083 8.12704 10.7597 8.12704 8.70375C8.12704 6.64699 9.82994 5 11.9537 5C14.0774 5 15.7803 6.64699 15.7803 8.70375ZM11.9536 19C8.83431 19 6.1709 18.5241 6.1709 16.6202C6.1709 14.7155 8.81722 14.2222 11.9536 14.2222C15.0728 14.2222 17.7362 14.6982 17.7362 16.6028C17.7362 18.5067 15.0899 19 11.9536 19ZM17.4159 8.7706C17.4159 9.81868 17.0911 10.795 16.5213 11.6067C16.4627 11.6903 16.5148 11.8029 16.6182 11.8203C16.7606 11.8439 16.9079 11.8573 17.0577 11.8613C18.5514 11.8991 19.8921 10.9684 20.2624 9.5673C20.8111 7.48611 19.2002 5.61768 17.1489 5.61768C16.9259 5.61768 16.7126 5.64054 16.505 5.68151C16.4765 5.68782 16.4464 5.70043 16.4301 5.72486C16.4106 5.7548 16.4252 5.79499 16.4448 5.821C17.061 6.6571 17.4159 7.67681 17.4159 8.7706ZM19.8893 13.3235C20.893 13.5134 21.5531 13.9011 21.8266 14.4645C22.0578 14.9271 22.0578 15.4638 21.8266 15.9256C21.4082 16.7995 20.0594 17.08 19.5352 17.1525C19.427 17.1683 19.3399 17.0777 19.3513 16.9728C19.6191 14.5512 17.4888 13.4031 16.9377 13.1391C16.9141 13.1273 16.9093 13.1091 16.9117 13.0981C16.9133 13.0902 16.9231 13.0776 16.941 13.0752C18.1335 13.054 19.4156 13.2116 19.8893 13.3235ZM6.94277 11.8612C7.09254 11.8573 7.23906 11.8447 7.38233 11.8202C7.48571 11.8029 7.5378 11.6902 7.47919 11.6067C6.90939 10.795 6.58461 9.81862 6.58461 8.77054C6.58461 7.67675 6.93951 6.65704 7.55571 5.82094C7.57525 5.79493 7.58908 5.75474 7.57036 5.7248C7.55408 5.70116 7.52315 5.68776 7.49547 5.68146C7.28709 5.64048 7.07382 5.61763 6.85078 5.61763C4.7995 5.61763 3.18859 7.48605 3.73804 9.56724C4.10841 10.9684 5.44907 11.899 6.94277 11.8612ZM7.08813 13.0977C7.09057 13.1095 7.08568 13.1268 7.06289 13.1394C6.511 13.4034 4.38075 14.5516 4.64856 16.9724C4.65996 17.078 4.57367 17.1678 4.46541 17.1529C3.94119 17.0804 2.59239 16.7998 2.17399 15.9259C1.942 15.4633 1.942 14.9275 2.17399 14.4649C2.4475 13.9014 3.10684 13.5137 4.1105 13.323C4.58507 13.2119 5.86631 13.0543 7.05964 13.0756C7.07754 13.078 7.0865 13.0906 7.08813 13.0977Z" fill="white"/>
</g>
</svg>
