<svg width="40" height="24" viewBox="0 0 40 24" fill="none" xmlns="http://www.w3.org/2000/svg">
<g clip-path="url(#clip0)">
<path d="M37 12H3V24H37V12Z" fill="#FEDE36"/>
<path d="M37 0H3V12H37V0Z" fill="#1473FB"/>
<path d="M45 0H-5V24H45V0Z" fill="#F0F0F0"/>
<path d="M23.125 0H16.875V9.74999H-5V14.25H16.875V24H23.125V14.25H45V9.74999H23.125V0Z" fill="#EB2246"/>
<path d="M33.4551 16.3474L44.9994 21.1576V16.3474H33.4551Z" fill="#1A76E3"/>
<path d="M25.4346 16.3474L44.9996 24.4995V22.1943L30.9672 16.3474H25.4346Z" fill="#1A76E3"/>
<path d="M39.7881 24.4993L25.4346 18.5182V24.4993H39.7881Z" fill="#1A76E3"/>
<path d="M25 16L45 24V21.7378L30.6557 16H25Z" fill="#F0F0F0"/>
<path d="M25 16L45 24V21.7378L30.6557 16H25Z" fill="#EB2246"/>
<path d="M3.82226 16.3474L-5 20.0233V16.3474H3.82226Z" fill="#1A76E3"/>
<path d="M14.5649 17.384V24.4995H-2.51074L14.5649 17.384Z" fill="#1A76E3"/>
<path d="M9.34434 16L-5 21.7378V24L15 16H9.34434Z" fill="#EB2246"/>
<path d="M6.5443 7.65193L-5 2.84174V7.65193H6.5443Z" fill="#1A76E3"/>
<path d="M14.565 7.65216L-5 -0.499893V1.8053L9.03235 7.65216H14.565Z" fill="#1A76E3"/>
<path d="M0.211914 -0.500153L14.5655 5.48103V-0.500153H0.211914Z" fill="#1A76E3"/>
<path d="M15 8L-5 0V2.2622L9.34434 8H15Z" fill="#F0F0F0"/>
<path d="M15 8L-5 0V2.2622L9.34434 8H15Z" fill="#EB2246"/>
<path d="M36.1768 7.65203L44.999 3.97604V7.65203H36.1768Z" fill="#1A76E3"/>
<path d="M25.4346 6.61531V-0.500153H42.5102L25.4346 6.61531Z" fill="#1A76E3"/>
<path d="M30.6557 8L45 2.2622V0L25 8H30.6557Z" fill="#EB2246"/>
</g>
<defs>
<clipPath id="clip0">
<rect width="40" height="24" rx="6" fill="white"/>
</clipPath>
</defs>
</svg>
