<svg width="127" height="36" viewBox="0 0 127 36" fill="none" xmlns="http://www.w3.org/2000/svg">
<path d="M13.972 24.528H6.636L5.46 28H0.448L7.56 8.344H13.104L20.216 28H15.148L13.972 24.528ZM12.74 20.832L10.304 13.636L7.896 20.832H12.74ZM32.4045 28L28.3165 20.58H27.1685V28H22.3805V8.344H30.4165C31.9659 8.344 33.2819 8.61467 34.3645 9.156C35.4659 9.69733 36.2872 10.444 36.8285 11.396C37.3699 12.3293 37.6405 13.3747 37.6405 14.532C37.6405 15.8387 37.2672 17.0053 36.5205 18.032C35.7925 19.0587 34.7099 19.7867 33.2725 20.216L37.8085 28H32.4045ZM27.1685 17.192H30.1365C31.0139 17.192 31.6672 16.9773 32.0965 16.548C32.5445 16.1187 32.7685 15.512 32.7685 14.728C32.7685 13.9813 32.5445 13.3933 32.0965 12.964C31.6672 12.5347 31.0139 12.32 30.1365 12.32H27.1685V17.192ZM54.7862 8.344V12.18H49.5782V28H44.7902V12.18H39.5822V8.344H54.7862ZM61.9771 24.304H68.2491V28H57.1891V8.344H61.9771V24.304ZM75.3209 8.344V28H70.5329V8.344H75.3209ZM91.5867 8.344V12.18H83.5787V16.324H89.5707V20.048H83.5787V28H78.7907V8.344H91.5867ZM108.243 8.344V12.18H103.035V28H98.2472V12.18H93.0392V8.344H108.243Z" fill="white"/>
<path d="M110.834 28.098C110.479 28.098 110.185 27.9907 109.952 27.776C109.728 27.552 109.616 27.2767 109.616 26.95C109.616 26.6233 109.728 26.3527 109.952 26.138C110.185 25.914 110.479 25.802 110.834 25.802C111.179 25.802 111.464 25.914 111.688 26.138C111.912 26.3527 112.024 26.6233 112.024 26.95C112.024 27.2767 111.912 27.552 111.688 27.776C111.464 27.9907 111.179 28.098 110.834 28.098ZM113.099 24.094C113.099 23.31 113.253 22.6147 113.561 22.008C113.878 21.4013 114.303 20.9347 114.835 20.608C115.376 20.2813 115.978 20.118 116.641 20.118C117.219 20.118 117.723 20.2347 118.153 20.468C118.591 20.7013 118.941 20.9953 119.203 21.35V20.244H121.177V28H119.203V26.866C118.951 27.23 118.601 27.5333 118.153 27.776C117.714 28.0093 117.205 28.126 116.627 28.126C115.973 28.126 115.376 27.958 114.835 27.622C114.303 27.286 113.878 26.8147 113.561 26.208C113.253 25.592 113.099 24.8873 113.099 24.094ZM119.203 24.122C119.203 23.646 119.109 23.24 118.923 22.904C118.736 22.5587 118.484 22.2973 118.167 22.12C117.849 21.9333 117.509 21.84 117.145 21.84C116.781 21.84 116.445 21.9287 116.137 22.106C115.829 22.2833 115.577 22.5447 115.381 22.89C115.194 23.226 115.101 23.6273 115.101 24.094C115.101 24.5607 115.194 24.9713 115.381 25.326C115.577 25.6713 115.829 25.9373 116.137 26.124C116.454 26.3107 116.79 26.404 117.145 26.404C117.509 26.404 117.849 26.3153 118.167 26.138C118.484 25.9513 118.736 25.69 118.923 25.354C119.109 25.0087 119.203 24.598 119.203 24.122ZM124.085 19.32C123.74 19.32 123.45 19.2127 123.217 18.998C122.993 18.774 122.881 18.4987 122.881 18.172C122.881 17.8453 122.993 17.5747 123.217 17.36C123.45 17.136 123.74 17.024 124.085 17.024C124.43 17.024 124.715 17.136 124.939 17.36C125.172 17.5747 125.289 17.8453 125.289 18.172C125.289 18.4987 125.172 18.774 124.939 18.998C124.715 19.2127 124.43 19.32 124.085 19.32ZM125.051 20.244V28H123.091V20.244H125.051Z" fill="#EA4882"/>
</svg>
