<svg width="417" height="176" viewBox="0 0 417 176" fill="none" xmlns="http://www.w3.org/2000/svg">
<g opacity="0.4">
<path d="M83.4097 -42.6285C83.9053 -43.1239 84.7086 -43.1238 85.2041 -42.6284C85.6996 -42.1331 85.6996 -41.3298 85.2041 -40.8345L-141.834 220.628C-142.33 221.124 -143.133 221.124 -143.628 220.628C-144.124 220.133 -144.124 219.33 -143.628 218.834L83.4097 -42.6285Z" fill="#131824"/>
<path d="M112.981 -42.6285C113.477 -43.1239 114.28 -43.1238 114.775 -42.6284C115.271 -42.1331 115.271 -41.3298 114.775 -40.8345L-112.263 220.628C-112.758 221.124 -113.562 221.124 -114.057 220.628C-114.553 220.133 -114.553 219.33 -114.057 218.834L112.981 -42.6285Z" fill="#131824"/>
<path d="M142.552 -42.6285C143.048 -43.1239 143.851 -43.1238 144.347 -42.6284C144.842 -42.1331 144.842 -41.3298 144.347 -40.8345L-82.6916 220.628C-83.1871 221.124 -83.9905 221.124 -84.486 220.628C-84.9815 220.133 -84.9815 219.33 -84.486 218.834L142.552 -42.6285Z" fill="#131824"/>
<path d="M172.123 -42.6285C172.619 -43.1239 173.422 -43.1238 173.918 -42.6284C174.413 -42.1331 174.413 -41.3298 173.918 -40.8345L-53.1204 220.628C-53.6159 221.124 -54.4193 221.124 -54.9148 220.628C-55.4103 220.133 -55.4103 219.33 -54.9148 218.834L172.123 -42.6285Z" fill="#131824"/>
<path d="M201.695 -42.6285C202.19 -43.1239 202.993 -43.1238 203.489 -42.6284C203.984 -42.1331 203.984 -41.3298 203.489 -40.8345L-23.5492 220.628C-24.0447 221.124 -24.8481 221.124 -25.3436 220.628C-25.8391 220.133 -25.8391 219.33 -25.3436 218.834L201.695 -42.6285Z" fill="#131824"/>
<path d="M231.266 -42.6285C231.761 -43.1239 232.565 -43.1238 233.06 -42.6284C233.556 -42.1331 233.556 -41.3298 233.06 -40.8345L6.02199 220.628C5.52649 221.124 4.72314 221.124 4.22765 220.628C3.73213 220.133 3.73213 219.33 4.22765 218.834L231.266 -42.6285Z" fill="#131824"/>
<path d="M260.837 -42.6285C261.333 -43.1239 262.136 -43.1238 262.631 -42.6284C263.127 -42.1331 263.127 -41.3298 262.631 -40.8345L35.5932 220.628C35.0977 221.124 34.2944 221.124 33.7988 220.628C33.3033 220.133 33.3033 219.33 33.7988 218.834L260.837 -42.6285Z" fill="#131824"/>
<path d="M290.408 -42.6285C290.904 -43.1239 291.707 -43.1238 292.203 -42.6284C292.698 -42.1331 292.698 -41.3298 292.203 -40.8345L65.1645 220.628C64.6689 221.124 63.8656 221.124 63.3701 220.628C62.8746 220.133 62.8746 219.33 63.3701 218.834L290.408 -42.6285Z" fill="#131824"/>
<path d="M319.979 -42.6285C320.475 -43.1239 321.278 -43.1238 321.774 -42.6284C322.269 -42.1331 322.269 -41.3298 321.774 -40.8345L94.7357 220.628C94.2402 221.124 93.4368 221.124 92.9413 220.628C92.4458 220.133 92.4458 219.33 92.9413 218.834L319.979 -42.6285Z" fill="#131824"/>
<path d="M349.551 -42.6285C350.046 -43.1239 350.849 -43.1238 351.345 -42.6284C351.84 -42.1331 351.84 -41.3298 351.345 -40.8345L124.307 220.628C123.811 221.124 123.008 221.124 122.513 220.628C122.017 220.133 122.017 219.33 122.513 218.834L349.551 -42.6285Z" fill="#131824"/>
<path d="M379.122 -42.6285C379.617 -43.1239 380.421 -43.1238 380.916 -42.6284C381.412 -42.1331 381.412 -41.3298 380.916 -40.8345L153.878 220.628C153.383 221.124 152.579 221.124 152.084 220.628C151.588 220.133 151.588 219.33 152.084 218.834L379.122 -42.6285Z" fill="#131824"/>
<path d="M408.693 -42.6285C409.189 -43.1239 409.992 -43.1238 410.487 -42.6284C410.983 -42.1331 410.983 -41.3298 410.487 -40.8345L183.449 220.628C182.954 221.124 182.15 221.124 181.655 220.628C181.159 220.133 181.159 219.33 181.655 218.834L408.693 -42.6285Z" fill="#131824"/>
<path d="M438.264 -42.6285C438.76 -43.1239 439.563 -43.1238 440.059 -42.6284C440.554 -42.1331 440.554 -41.3298 440.059 -40.8345L213.02 220.628C212.525 221.124 211.722 221.124 211.226 220.628C210.731 220.133 210.731 219.33 211.226 218.834L438.264 -42.6285Z" fill="#131824"/>
<path d="M467.835 -42.6285C468.331 -43.1239 469.134 -43.1238 469.63 -42.6284C470.125 -42.1331 470.125 -41.3298 469.63 -40.8345L242.592 220.628C242.096 221.124 241.293 221.124 240.797 220.628C240.302 220.133 240.302 219.33 240.797 218.834L467.835 -42.6285Z" fill="#131824"/>
<path d="M497.407 -42.6285C497.902 -43.1239 498.706 -43.1238 499.201 -42.6284C499.697 -42.1331 499.697 -41.3298 499.201 -40.8345L272.163 220.628C271.667 221.124 270.864 221.124 270.369 220.628C269.873 220.133 269.873 219.33 270.369 218.834L497.407 -42.6285Z" fill="#131824"/>
<path d="M526.978 -42.6285C527.473 -43.1239 528.277 -43.1238 528.772 -42.6284C529.268 -42.1331 529.268 -41.3298 528.772 -40.8345L301.734 220.628C301.239 221.124 300.435 221.124 299.94 220.628C299.444 220.133 299.444 219.33 299.94 218.834L526.978 -42.6285Z" fill="#131824"/>
<path d="M556.549 -42.6285C557.045 -43.1239 557.848 -43.1238 558.344 -42.6284C558.839 -42.1331 558.839 -41.3298 558.344 -40.8345L331.305 220.628C330.81 221.124 330.007 221.124 329.511 220.628C329.016 220.133 329.016 219.33 329.511 218.834L556.549 -42.6285Z" fill="#131824"/>
<path d="M586.12 -42.6285C586.616 -43.1239 587.419 -43.1238 587.915 -42.6284C588.41 -42.1331 588.41 -41.3298 587.915 -40.8345L360.876 220.628C360.381 221.124 359.578 221.124 359.082 220.628C358.587 220.133 358.587 219.33 359.082 218.834L586.12 -42.6285Z" fill="#131824"/>
<path d="M615.692 -42.6285C616.187 -43.1239 616.99 -43.1238 617.486 -42.6284C617.981 -42.1331 617.981 -41.3298 617.486 -40.8345L390.448 220.628C389.952 221.124 389.149 221.124 388.653 220.628C388.158 220.133 388.158 219.33 388.653 218.834L615.692 -42.6285Z" fill="#131824"/>
<path d="M645.263 -42.6285C645.758 -43.1239 646.562 -43.1238 647.057 -42.6284C647.553 -42.1331 647.553 -41.3298 647.057 -40.8345L420.019 220.628C419.523 221.124 418.72 221.124 418.225 220.628C417.729 220.133 417.729 219.33 418.225 218.834L645.263 -42.6285Z" fill="#131824"/>
<path d="M674.834 -42.6285C675.329 -43.1239 676.133 -43.1238 676.628 -42.6284C677.124 -42.1331 677.124 -41.3298 676.628 -40.8345L449.59 220.628C449.095 221.124 448.291 221.124 447.796 220.628C447.3 220.133 447.3 219.33 447.796 218.834L674.834 -42.6285Z" fill="#131824"/>
</g>
</svg>
